# Blender v2.79 (sub 0) OBJ File: 'guy.blend'
# www.blender.org
o Cube_Cube.001
v -0.576806 -0.728608 1.268624
v -0.647077 0.735127 1.340313
v -0.748529 -0.742042 -0.904178
v -0.734198 0.842359 -0.904178
v 0.577566 -0.742938 1.258761
v 0.638318 0.730121 1.340583
v 0.778130 -0.795993 -0.762665
v 0.706617 0.828028 -0.902972
v -0.255812 -1.000000 -0.904178
v -0.255812 1.000000 -0.904178
v -0.255812 -1.000000 1.258103
v -0.241657 0.716914 1.260877
v 0.239595 1.000000 -0.902972
v 0.239595 -1.000000 1.259309
v 0.239595 -1.000000 -0.902972
v 0.253750 0.716914 1.262082
v -0.923052 0.098262 1.264475
v -1.068177 0.148793 -1.060369
v 1.024453 0.153727 -1.051571
v 0.903197 0.122797 1.286456
v -0.614939 0.572550 1.255906
v -0.255812 0.448944 -1.276784
v 0.595490 0.579311 1.259154
v 0.239595 0.448944 -1.275578
v -1.064354 -0.390212 -0.586710
v 1.028277 -0.385278 -0.577912
v 0.577803 -0.400661 1.259596
v -0.102914 0.069834 1.256843
v -0.255812 -0.268618 -1.276784
v 0.097318 0.062883 1.254532
v 0.239595 -0.268618 -1.275578
v -0.568586 -0.404454 1.260339
v -0.747623 -0.742042 -0.277568
v -0.733292 0.842359 -0.277568
v 0.750515 -0.756373 -0.276362
v 0.707522 0.828028 -0.276362
v -0.254906 1.000000 -0.277568
v -0.254906 -1.000000 -0.277568
v 0.240500 1.000000 -0.276362
v 0.240500 -1.000000 -0.276362
v 1.025419 0.567359 -0.580882
v -1.067211 0.562425 -0.589680
v -1.063387 0.023421 -0.116021
v 1.029243 0.028354 -0.107223
v -0.648158 -0.740754 0.264906
v 0.622878 0.829217 0.253246
v -0.254623 1.001189 0.251446
v -0.254623 -0.998811 0.251446
v 0.240784 1.001189 0.252652
v 0.240784 -0.998811 0.252652
v 0.823512 0.450133 0.253246
v 0.823512 -0.267428 0.253246
v -0.633827 0.843647 0.264906
v 0.665871 -0.755184 0.253246
v -0.820130 0.450232 0.264906
v -0.820130 -0.267329 0.264906
v -0.748529 -0.742042 0.676126
v 0.706617 0.828028 0.677332
v -0.255812 1.000000 0.676126
v -0.255812 -1.000000 0.676126
v 0.239595 1.000000 0.677332
v 0.239595 -1.000000 0.677332
v 0.907251 0.448944 0.677332
v 0.907251 -0.268618 0.677332
v -0.734198 0.842359 0.676126
v 0.749610 -0.756373 0.677332
v -0.920501 0.448944 0.676126
v -0.920501 -0.268618 0.676126
v -0.335311 0.448944 -1.422136
v 0.332344 0.448944 -1.422136
v -0.335311 -0.268618 -1.422136
v 0.332344 -0.268618 -1.422136
v -0.335311 0.448944 -2.253812
v 0.332344 0.448944 -2.253812
v -0.335311 -0.268618 -2.253812
v 0.332344 -0.268618 -2.253812
v 1.766660 0.133376 1.157883
v 1.439004 -0.243381 1.165682
v 1.370146 0.404697 1.172648
v 1.082253 0.014402 1.188267
v -1.472149 0.392208 1.184208
v -1.854718 0.086933 1.188841
v -1.562331 -0.335292 1.193122
v -1.125401 -0.033525 1.263783
v -1.466336 -0.293339 -0.370207
v -1.726001 0.114888 -0.449769
v -1.415870 0.434161 -0.377452
v -1.116713 0.005460 -0.120919
v -1.530969 -0.325179 0.756432
v -1.129887 -0.027307 0.911835
v -1.854382 0.098438 0.737889
v -1.480503 0.402321 0.749188
v 1.372454 0.409363 -0.411449
v 1.623216 0.140917 -0.558720
v 1.124313 0.016750 -0.064582
v 1.401586 -0.238715 -0.417023
v 1.396270 0.407327 0.763786
v 1.092345 0.014620 0.858934
v 1.425401 -0.240752 0.758212
v 1.723750 0.134429 0.709301
v 1.143043 0.117118 3.599288
v 0.862144 0.944115 3.567740
v 0.817649 -0.406340 3.572428
v 0.337164 0.057204 3.567364
v -0.703811 -0.393730 3.557589
v -1.058276 0.108986 3.561725
v -0.750164 0.968658 3.553155
v -0.238139 0.080558 3.554092
v -0.636504 -0.399610 2.298062
v -0.990969 0.103106 2.302198
v -0.170832 0.074678 2.294566
v -0.682857 0.577394 2.293629
v -0.704891 -0.395562 3.165113
v -0.366590 0.081045 3.160725
v -0.974443 0.105608 3.169843
v -0.748669 0.439906 3.132418
v 0.701146 0.582488 2.330222
v 1.008853 0.125974 2.357524
v 0.683459 -0.397484 2.330663
v 0.202974 0.066060 2.325599
v 0.785961 0.434368 3.183163
v 0.398432 0.057415 3.207595
v 0.992027 0.121194 3.238033
v 0.765699 -0.404068 3.211866
v -0.335311 0.738303 -1.422136
v 0.332344 0.738303 -1.422136
v -0.335311 0.738303 -2.253812
v 0.332344 0.738303 -2.253812
vt 0.119063 0.598737
vt 0.072339 0.557622
vt 0.159225 0.545831
vt 0.598428 0.450654
vt 0.638202 0.506108
vt 0.561347 0.542516
vt 0.566841 0.081896
vt 0.517168 0.007043
vt 0.589378 0.010168
vt 0.609459 0.735053
vt 0.628725 0.738830
vt 0.554491 0.770974
vt 0.413782 0.350045
vt 0.365806 0.281846
vt 0.413782 0.281731
vt 0.057316 0.742437
vt 0.024676 0.807190
vt 0.006950 0.737469
vt 0.467401 0.088577
vt 0.448265 0.024113
vt 0.487984 0.019603
vt 0.183031 0.192774
vt 0.134794 0.262261
vt 0.122564 0.192533
vt 0.610803 0.592974
vt 0.626358 0.691305
vt 0.641563 0.337007
vt 0.599022 0.392504
vt 0.563319 0.296880
vt 0.628725 0.587948
vt 0.558273 0.556602
vt 0.519176 0.084211
vt 0.221563 0.193408
vt 0.183057 0.261084
vt 0.659202 0.393352
vt 0.103146 0.833994
vt 0.032629 0.851264
vt 0.039468 0.833994
vt 0.729838 0.815853
vt 0.673102 0.862974
vt 0.686997 0.820488
vt 0.516170 0.391620
vt 0.496698 0.296880
vt 0.551528 0.674700
vt 0.550801 0.651195
vt 0.032342 0.485827
vt 0.096274 0.531127
vt 0.025549 0.531745
vt 0.299168 0.350067
vt 0.264735 0.278427
vt 0.335415 0.281628
vt 0.515577 0.449770
vt 0.494726 0.542516
vt 0.859102 0.797852
vt 0.810212 0.860241
vt 0.798479 0.808665
vt 0.122590 0.080593
vt 0.067739 0.044331
vt 0.122491 0.007043
vt 0.455213 0.509202
vt 0.427683 0.449039
vt 0.354189 0.350173
vt 0.427683 0.692111
vt 0.496461 0.729120
vt 0.458998 0.729915
vt 0.427912 0.633959
vt 0.458640 0.333373
vt 0.428276 0.390889
vt 0.497411 0.594560
vt 0.457804 0.594417
vt 0.300510 0.497503
vt 0.354122 0.462120
vt 0.354189 0.535673
vt 0.076225 0.144652
vt 0.130241 0.144366
vt 0.101596 0.697112
vt 0.160674 0.656875
vt 0.163377 0.700809
vt 0.608912 0.067405
vt 0.658647 0.017617
vt 0.658289 0.070501
vt 0.221491 0.007919
vt 0.183057 0.080834
vt 0.182958 0.007284
vt 0.530344 0.269175
vt 0.474213 0.200193
vt 0.525989 0.195827
vt 0.478569 0.273542
vt 0.434495 0.204703
vt 0.021973 0.552654
vt 0.066312 0.630896
vt 0.015947 0.625928
vt 0.413715 0.461992
vt 0.413782 0.535545
vt 0.575346 0.228290
vt 0.613048 0.282794
vt 0.105517 0.746082
vt 0.167298 0.749780
vt 0.305297 0.399812
vt 0.360318 0.399917
vt 0.604971 0.172041
vt 0.563024 0.132272
vt 0.600779 0.128793
vt 0.221590 0.081469
vt 0.183001 0.142929
vt 0.515359 0.134588
vt 0.430680 0.142784
vt 0.470399 0.138275
vt 0.053395 0.693467
vt 0.010794 0.687787
vt 0.413588 0.399895
vt 0.107607 0.261610
vt 0.036882 0.262227
vt 0.068548 0.192818
vt 0.053534 0.819908
vt 0.130314 0.816718
vt 0.235490 0.349815
vt 0.096307 0.851264
vt 0.033005 0.948888
vt 0.433866 0.900488
vt 0.489280 0.882679
vt 0.495464 0.899821
vt 0.533996 0.900471
vt 0.541210 0.883364
vt 0.733499 0.885182
vt 0.750439 0.932981
vt 0.733638 0.925682
vt 0.312830 0.918476
vt 0.235490 0.834544
vt 0.312830 0.834514
vt 0.006950 0.851264
vt 0.541210 0.785745
vt 0.840342 0.874914
vt 0.778470 0.973962
vt 0.778470 0.876369
vt 0.908493 0.266911
vt 0.959521 0.210593
vt 0.959521 0.267389
vt 0.952647 0.446935
vt 0.896771 0.482733
vt 0.895517 0.434664
vt 0.905333 0.155866
vt 0.953791 0.192879
vt 0.903878 0.194491
vt 0.880869 0.065330
vt 0.833237 0.007043
vt 0.889977 0.018400
vt 0.900632 0.499698
vt 0.957270 0.563607
vt 0.895517 0.563607
vt 0.248515 0.738764
vt 0.189582 0.786126
vt 0.193489 0.735272
vt 0.349575 0.797905
vt 0.407041 0.761259
vt 0.406845 0.812633
vt 0.411054 0.591033
vt 0.348065 0.559859
vt 0.411285 0.549759
vt 0.719598 0.929562
vt 0.678030 0.975810
vt 0.713440 0.927364
vt 0.719598 0.878408
vt 0.673102 0.890496
vt 0.169580 0.617463
vt 0.811211 0.591084
vt 0.834398 0.668079
vt 0.778470 0.670620
vt 0.411285 0.711975
vt 0.347351 0.610883
vt 0.352861 0.919144
vt 0.407041 0.945122
vt 0.832045 0.271677
vt 0.853955 0.200559
vt 0.889977 0.227572
vt 0.992350 0.938677
vt 0.949605 0.971885
vt 0.981302 0.939835
vt 0.952747 0.895856
vt 0.993050 0.878147
vt 0.615138 0.205171
vt 0.658647 0.219810
vt 0.825405 0.059174
vt 0.909566 0.047562
vt 0.953360 0.145024
vt 0.952232 0.338465
vt 0.900032 0.296880
vt 0.117047 0.900439
vt 0.193768 0.954852
vt 0.118542 0.972842
vt 0.258263 0.049384
vt 0.318061 0.010244
vt 0.321727 0.052545
vt 0.719775 0.527707
vt 0.789876 0.568343
vt 0.673102 0.576998
vt 0.880369 0.532936
vt 0.804694 0.569283
vt 0.812393 0.527568
vt 0.635703 0.805870
vt 0.555110 0.856941
vt 0.561576 0.785060
vt 0.949337 0.815196
vt 0.883709 0.864061
vt 0.881910 0.818026
vt 0.280987 0.770000
vt 0.333450 0.820428
vt 0.235490 0.820428
vt 0.714385 0.060273
vt 0.787549 0.013446
vt 0.775128 0.059552
vt 0.704528 0.279083
vt 0.786998 0.161025
vt 0.787549 0.282613
vt 0.324024 0.550526
vt 0.264081 0.671696
vt 0.259295 0.549759
vt 0.883709 0.594185
vt 0.959901 0.713014
vt 0.883200 0.716115
vt 0.101956 0.383350
vt 0.031231 0.383968
vt 0.703977 0.157496
vt 0.328811 0.672463
vt 0.096329 0.485057
vt 0.881616 0.303103
vt 0.803777 0.422963
vt 0.804694 0.296880
vt 0.707031 0.303018
vt 0.789796 0.422624
vt 0.706951 0.428762
vt 0.327266 0.155946
vt 0.701729 0.591674
vt 0.752231 0.716754
vt 0.689391 0.717344
vt 0.880699 0.429186
vt 0.782311 0.526410
vt 0.256586 0.152746
vt 0.881910 0.978235
vt 0.935704 0.878147
vt 0.935704 0.975672
vt 0.461163 0.992957
vt 0.427683 0.914574
vt 0.461163 0.914587
vt 0.865292 0.971920
vt 0.840342 0.972507
vt 0.235490 0.952363
vt 0.235490 0.918505
vt 0.658608 0.451502
vt 0.427683 0.093087
vt 0.626587 0.633153
vt 0.221590 0.261718
vt 0.764569 0.864322
vt 0.868009 0.848290
vt 0.032328 0.099978
vt 0.263731 0.442107
vt 0.604147 0.019777
vt 0.438850 0.278051
vt 0.221534 0.143563
vt 0.006950 0.193510
vt 0.241619 0.399560
vt 0.096683 0.948888
vt 0.427683 0.883346
vt 0.750439 0.878408
vt 0.007326 0.948888
vt 0.489280 0.785060
vt 0.903878 0.208577
vt 0.952647 0.485612
vt 0.957155 0.503376
vt 0.245245 0.791564
vt 0.347351 0.756657
vt 0.718071 0.990076
vt 0.221609 0.613345
vt 0.868009 0.635242
vt 0.351974 0.742571
vt 0.801450 0.206147
vt 0.993050 0.989826
vt 0.953791 0.007043
vt 0.193768 0.833994
vt 0.247381 0.007043
vt 0.881616 0.575506
vt 0.635703 0.926114
vt 0.960410 0.860960
vt 0.327275 0.774244
vt 0.672548 0.007043
vt 0.960410 0.591084
vt 0.789876 0.296880
vt 0.764569 0.591084
vt 0.881910 0.880710
vt 0.427683 0.992944
vt 0.865292 0.874327
vt 0.312830 0.952334
vn -0.7820 0.4690 -0.4105
vn 0.3802 0.3664 -0.8493
vn 0.9034 0.3755 0.2071
vn 0.5081 -0.3156 0.8014
vn 0.6054 -0.7959 -0.0000
vn -0.2835 0.8604 0.4234
vn -0.0011 0.9001 0.4358
vn -0.4584 -0.8755 0.1527
vn -0.0025 -0.0279 0.9996
vn -0.3639 0.3679 -0.8557
vn -0.5073 -0.2935 0.8103
vn -0.0624 0.9883 0.1395
vn 0.0000 -1.0000 0.0000
vn 0.0020 0.5601 -0.8284
vn 0.8450 0.0000 0.5348
vn 0.8131 0.4764 -0.3345
vn -0.4751 -0.5828 -0.6593
vn 0.0109 -0.0194 0.9998
vn -0.8064 -0.5672 -0.1676
vn 0.7930 -0.5101 0.3330
vn 0.4945 -0.5718 -0.6546
vn -0.7944 -0.6072 -0.0161
vn -0.7437 -0.6685 0.0011
vn 0.3747 -0.4209 -0.8261
vn 0.9589 -0.0014 0.2838
vn 0.0532 0.0242 0.9983
vn -0.0024 0.0042 1.0000
vn -0.2312 -0.4416 -0.8669
vn 0.0035 -0.0024 1.0000
vn 0.0022 -0.4539 -0.8910
vn 0.8316 -0.5478 0.0918
vn -0.9261 -0.3364 0.1706
vn -0.8428 0.0000 0.5382
vn 0.6333 0.7717 -0.0588
vn 0.3455 0.9384 -0.0005
vn -0.4638 -0.8859 0.0007
vn 0.0000 1.0000 -0.0000
vn -0.3130 0.9498 0.0005
vn 0.3544 -0.9351 -0.0005
vn 0.7884 0.4613 -0.4070
vn -0.7608 0.5777 0.2958
vn -0.8828 0.4181 -0.2142
vn -0.9715 0.0000 -0.2371
vn -0.9159 -0.3327 -0.2246
vn 0.9406 -0.3040 0.1510
vn 0.8685 0.0000 0.4957
vn -0.0000 -1.0000 0.0022
vn 0.3451 0.9371 0.0530
vn -0.4621 -0.8826 0.0868
vn 0.0000 1.0000 -0.0022
vn -0.3837 0.9234 -0.0019
vn 0.4972 -0.8676 0.0017
vn 0.7509 0.6042 0.2667
vn -0.9602 0.0314 0.2776
vn -0.7684 -0.5446 0.3362
vn -0.9052 0.3667 0.2146
vn 0.9350 -0.3022 -0.1855
vn 0.9811 0.0000 -0.1937
vn 0.0000 -1.0000 -0.0028
vn 0.3448 0.9364 -0.0655
vn -0.4607 -0.8800 -0.1152
vn -0.0000 1.0000 0.0028
vn -0.3836 0.9235 0.0015
vn 0.4972 -0.8676 -0.0010
vn 0.8709 0.4609 -0.1707
vn 1.0000 0.0000 0.0000
vn -0.8773 0.0000 0.4799
vn 0.0000 0.0000 -1.0000
vn -1.0000 0.0000 0.0000
vn 0.0600 -0.0043 0.9982
vn -0.7954 0.6042 -0.0469
vn -0.5864 -0.8098 -0.0185
vn 0.7539 -0.6563 -0.0294
vn -0.1829 0.0347 0.9825
vn -0.6310 0.7752 0.0301
vn 0.5901 -0.8070 0.0237
vn 0.7752 0.6317 0.0013
vn -0.2130 0.3879 0.8967
vn 0.1709 -0.7414 0.6490
vn -0.5611 0.6223 -0.5457
vn -0.5777 -0.4941 -0.6498
vn 0.7688 0.6388 0.0301
vn 0.6433 -0.7655 0.0153
vn -0.6304 0.7761 -0.0142
vn -0.8311 -0.5476 -0.0974
vn 0.5036 -0.5683 -0.6507
vn -0.2871 -0.8686 0.4038
vn -0.0663 0.6584 0.7498
vn 0.4532 0.7152 -0.5320
vn 0.7815 -0.6237 -0.0169
vn -0.6127 -0.7900 -0.0230
vn -0.8380 0.5454 0.0179
vn 0.7150 0.6971 -0.0531
vn -0.0375 -0.0280 0.9989
vn 0.9125 -0.3865 -0.1339
vn -0.7681 0.4548 -0.4507
vn -0.7750 -0.6180 -0.1323
vn 0.0092 -0.0017 1.0000
vn 0.8155 -0.5788 0.0005
vn -0.8683 0.3073 -0.3893
vn 0.6764 0.7029 -0.2200
vn 0.6999 0.7130 0.0425
vn -0.8377 0.5431 -0.0574
vn 0.7129 -0.6995 0.0499
vn -0.8164 -0.5752 -0.0507
vn 0.6924 0.7055 0.1513
vn -0.8382 0.5449 0.0236
vn 0.8139 -0.5771 0.0669
vn -0.8805 -0.4737 0.0181
vn -0.6930 -0.7175 0.0705
vn -0.7183 0.6923 0.0688
vn 0.8483 -0.5231 -0.0821
vn 0.8286 0.5535 -0.0834
vn -0.6877 -0.7113 0.1454
vn -0.6783 0.7096 0.1907
vn 0.8483 -0.5230 -0.0831
vn 0.8337 0.5519 0.0189
vn 0.0000 0.0000 1.0000
vn -0.6430 0.7659 0.0009
vn 0.2020 0.5486 -0.8113
vn 0.8727 0.4619 0.1581
vn 0.1548 -0.4309 0.8890
vn 0.4264 -0.8926 0.1468
vn 0.0736 0.9860 0.1495
vn -0.6456 -0.7636 0.0000
vn -0.0024 -0.0273 0.9996
vn -0.1815 0.5508 -0.8146
vn -0.1662 -0.4316 0.8867
vn 0.3156 0.8570 0.4073
vn 0.8218 0.2598 -0.5071
vn -0.2574 0.0000 -0.9663
vn -0.0027 -0.0009 1.0000
vn -0.8807 -0.4737 0.0046
vn 1.0000 0.0000 0.0067
vn 0.2745 0.0000 -0.9616
vn -0.8196 -0.5683 -0.0720
vn -0.8284 -0.4200 0.3707
vn 0.6562 -0.0614 -0.7521
vn 0.8616 -0.2785 0.4244
vn 0.0074 0.0001 1.0000
vn 0.0115 -0.0005 0.9999
vn -0.6543 0.0901 -0.7508
vn -0.0071 0.0035 1.0000
vn 0.8646 -0.3784 0.3307
vn -0.8771 -0.4134 0.2445
vn -0.9190 0.2566 0.2994
vn 0.5653 0.8239 0.0414
vn 0.4290 -0.8980 0.0975
vn 0.6335 0.7737 -0.0009
vn -0.8918 0.4223 0.1625
vn 0.9048 -0.3677 0.2147
vn 0.9367 0.2349 0.2597
vn 0.4104 0.9119 -0.0023
vn -0.5483 -0.8363 0.0022
vn -0.3125 0.9483 0.0550
vn 0.4300 -0.9001 0.0707
vn 0.8753 0.4633 0.1389
vn -0.8451 -0.3070 0.4377
vn -1.0000 0.0000 -0.0043
vn -0.8883 0.4206 0.1844
vn 0.4104 0.9119 0.0037
vn -0.5484 -0.8362 -0.0039
vn -0.3121 0.9472 -0.0732
vn 0.4294 -0.8989 -0.0873
vn 0.0322 -0.0073 0.9995
vn -0.8050 0.5928 -0.0243
vn -0.6055 -0.7957 0.0151
vn 0.7756 -0.6266 -0.0757
vn 0.0026 0.0119 0.9999
vn -0.6235 0.7816 0.0195
vn 0.5705 -0.8210 -0.0218
vn 0.7748 0.6322 -0.0002
vn 0.2089 0.6464 0.7339
vn 0.1890 -0.7378 0.6480
vn -0.5374 0.6451 -0.5432
vn -0.4907 -0.5771 -0.6528
vn 0.8004 0.5961 0.0628
vn 0.6005 -0.7994 -0.0177
vn -0.7081 0.7029 -0.0668
vn -0.7920 -0.6074 -0.0626
vn 0.5241 -0.5490 -0.6511
vn 0.0104 -0.7511 0.6601
vn -0.2098 0.7185 0.6632
vn 0.5534 0.6251 -0.5505
vn 0.8499 -0.5223 -0.0701
vn -0.6691 -0.7431 0.0123
vn -0.7936 0.6079 -0.0261
vn 0.6390 0.7691 -0.0116
vn -0.0414 0.0241 0.9989
vn 0.8058 -0.4833 -0.3423
vn -0.6962 0.7081 -0.1181
vn -0.6917 -0.7159 0.0951
vn 0.0095 0.0066 0.9999
vn 0.6940 -0.6831 -0.2275
vn -0.8243 0.5364 -0.1810
vn 0.7352 0.4233 -0.5294
vn 0.6677 0.7244 0.1711
vn -0.8279 0.5607 0.0142
vn 0.7045 -0.6905 0.1643
vn -0.8160 -0.5748 -0.0617
vn -0.7809 -0.6209 0.0682
vn -0.7107 0.6841 0.1642
vn 0.9180 -0.3963 0.0154
vn 0.8287 0.5595 0.0147
s off
f 42/1/1 4/2/1 18/3/1
f 24/4/2 8/5/2 19/6/2
f 63/7/3 6/8/3 20/9/3
f 21/10/4 2/11/4 17/12/4
f 62/13/5 5/14/5 14/15/5
f 65/16/6 12/17/6 59/18/6
f 61/19/7 12/20/7 16/21/7
f 60/22/8 1/23/8 57/24/8
f 23/25/9 12/26/9 21/10/9
f 4/27/10 22/28/10 18/29/10
f 6/30/11 23/25/11 20/31/11
f 58/32/12 16/21/12 6/8/12
f 62/33/13 11/34/13 60/22/13
f 10/35/14 24/4/14 22/28/14
f 31/36/15 70/37/15 24/38/15
f 121/39/16 101/40/16 123/41/16
f 18/29/17 29/42/17 25/43/17
f 23/25/18 28/44/18 30/45/18
f 115/46/19 105/47/19 106/48/19
f 64/49/20 20/50/20 27/51/20
f 31/52/21 19/6/21 26/53/21
f 89/54/22 82/55/22 91/56/22
f 33/57/23 25/58/23 3/59/23
f 31/52/24 7/60/24 15/61/24
f 66/62/25 27/51/25 5/14/25
f 11/63/26 32/64/26 1/65/26
f 30/45/27 11/63/27 14/66/27
f 3/67/28 29/42/28 9/68/28
f 27/69/29 14/66/29 5/70/29
f 9/68/30 31/52/30 15/61/30
f 26/71/31 35/72/31 7/73/31
f 56/74/32 33/57/32 45/75/32
f 55/76/33 43/77/33 56/78/33
f 97/79/34 77/80/34 100/81/34
f 15/82/13 38/83/13 9/84/13
f 8/85/35 39/86/35 36/87/35
f 9/84/36 33/57/36 3/59/36
f 13/88/37 37/89/37 39/86/37
f 10/90/38 34/91/38 37/92/38
f 7/73/39 40/93/39 15/94/39
f 8/85/40 41/95/40 19/96/40
f 55/76/41 34/91/41 42/1/41
f 65/16/42 55/76/42 67/97/42
f 67/97/43 56/78/43 68/98/43
f 57/24/44 56/74/44 45/75/44
f 35/72/45 52/99/45 54/100/45
f 44/101/46 51/102/46 52/103/46
f 40/104/47 48/105/47 38/83/47
f 39/86/48 46/106/48 36/87/48
f 38/83/49 45/75/49 33/57/49
f 39/86/50 47/107/50 49/108/50
f 37/92/51 53/109/51 47/110/51
f 40/93/52 54/100/52 50/111/52
f 36/87/53 51/102/53 41/95/53
f 32/112/54 57/24/54 1/23/54
f 17/113/55 68/114/55 32/112/55
f 2/115/56 67/97/56 17/116/56
f 52/99/57 66/62/57 54/100/57
f 52/99/58 63/117/58 64/49/58
f 48/105/59 62/33/59 60/22/59
f 46/106/60 61/19/60 58/32/60
f 45/75/61 60/22/61 57/24/61
f 47/107/62 61/19/62 49/108/62
f 53/109/63 59/18/63 47/110/63
f 54/100/64 62/13/64 50/111/64
f 51/102/65 58/32/65 63/7/65
f 72/118/66 74/119/66 70/37/66
f 22/120/67 71/121/67 29/122/67
f 31/123/13 71/121/13 72/124/13
f 24/125/37 69/126/37 22/127/37
f 73/128/68 76/129/68 75/130/68
f 74/119/66 126/131/66 70/37/66
f 71/121/13 76/132/13 72/124/13
f 69/133/69 75/134/69 71/135/69
f 78/136/70 79/137/70 80/138/70
f 98/139/71 79/140/71 97/141/71
f 98/142/72 78/143/72 80/144/72
f 99/145/73 77/146/73 78/147/73
f 81/148/74 83/149/74 84/150/74
f 91/151/75 81/152/75 92/153/75
f 90/154/76 83/155/76 89/156/76
f 90/157/77 81/158/77 84/159/77
f 43/160/78 87/161/78 88/162/78
f 25/163/79 88/162/79 85/164/79
f 18/3/80 87/165/80 42/1/80
f 18/166/81 85/167/81 86/168/81
f 88/169/82 92/170/82 90/157/82
f 88/171/83 89/156/83 85/172/83
f 87/165/84 91/151/84 92/153/84
f 85/167/85 91/56/85 86/168/85
f 19/173/86 96/174/86 26/175/86
f 44/176/87 96/177/87 95/178/87
f 44/176/88 93/179/88 41/180/88
f 19/96/89 93/181/89 94/182/89
f 96/174/90 100/183/90 99/145/90
f 95/184/91 99/185/91 98/142/91
f 95/186/92 97/141/92 93/187/92
f 93/181/93 100/81/93 94/182/93
f 101/188/94 104/189/94 103/190/94
f 123/191/95 103/192/95 124/193/95
f 121/194/96 104/195/96 102/196/96
f 124/197/97 104/198/97 122/199/97
f 108/200/98 106/201/98 105/202/98
f 114/203/99 105/204/99 113/205/99
f 116/206/100 106/207/100 107/208/100
f 116/209/101 108/210/101 114/211/101
f 21/212/102 111/213/102 28/214/102
f 17/215/103 112/216/103 21/217/103
f 32/218/104 111/219/104 109/220/104
f 17/113/105 109/221/105 110/222/105
f 112/223/106 114/211/106 111/213/106
f 110/224/107 116/206/107 112/216/107
f 109/220/108 114/203/108 113/205/108
f 110/222/109 113/225/109 115/46/109
f 27/226/110 120/227/110 30/228/110
f 23/229/111 120/230/111 117/231/111
f 20/50/112 119/232/112 27/51/112
f 20/233/113 117/234/113 118/235/113
f 119/236/114 122/199/114 120/227/114
f 117/231/115 122/237/115 121/194/115
f 118/238/116 124/193/116 119/232/116
f 118/235/117 121/39/117 123/41/117
f 126/239/37 127/240/37 125/241/37
f 70/242/118 125/243/118 69/244/118
f 69/133/69 127/245/69 73/246/69
f 73/128/68 128/247/68 74/248/68
f 42/1/119 34/91/119 4/2/119
f 24/4/120 13/249/120 8/5/120
f 63/7/121 58/32/121 6/8/121
f 21/10/122 12/26/122 2/11/122
f 62/13/123 66/62/123 5/14/123
f 65/16/124 2/115/124 12/17/124
f 61/19/7 59/250/7 12/20/7
f 60/22/125 11/34/125 1/23/125
f 23/25/126 16/251/126 12/26/126
f 4/27/127 10/35/127 22/28/127
f 6/30/128 16/251/128 23/25/128
f 58/32/129 61/19/129 16/21/129
f 62/33/13 14/252/13 11/34/13
f 10/35/14 13/249/14 24/4/14
f 31/36/15 72/118/15 70/37/15
f 121/39/130 102/253/130 101/40/130
f 18/29/131 22/28/131 29/42/131
f 23/25/132 21/10/132 28/44/132
f 115/46/133 113/225/133 105/47/133
f 64/49/134 63/117/134 20/50/134
f 31/52/135 24/4/135 19/6/135
f 89/54/136 83/254/136 82/55/136
f 33/57/137 43/255/137 25/58/137
f 31/52/138 26/53/138 7/60/138
f 66/62/139 64/49/139 27/51/139
f 11/63/140 28/44/140 32/64/140
f 30/45/141 28/44/141 11/63/141
f 3/67/142 25/43/142 29/42/142
f 27/69/143 30/45/143 14/66/143
f 9/68/30 29/42/30 31/52/30
f 26/71/144 44/256/144 35/72/144
f 56/74/145 43/255/145 33/57/145
f 55/76/146 42/1/146 43/77/146
f 97/79/147 79/257/147 77/80/147
f 15/82/13 40/104/13 38/83/13
f 8/85/35 13/88/35 39/86/35
f 9/84/36 38/83/36 33/57/36
f 13/88/37 10/258/37 37/89/37
f 10/90/38 4/2/38 34/91/38
f 7/73/148 35/72/148 40/93/148
f 8/85/149 36/87/149 41/95/149
f 55/76/150 53/109/150 34/91/150
f 65/16/42 53/109/42 55/76/42
f 67/97/43 55/76/43 56/78/43
f 57/24/44 68/114/44 56/74/44
f 35/72/151 44/256/151 52/99/151
f 44/101/152 41/95/152 51/102/152
f 40/104/47 50/259/47 48/105/47
f 39/86/153 49/108/153 46/106/153
f 38/83/154 48/105/154 45/75/154
f 39/86/50 37/89/50 47/107/50
f 37/92/155 34/91/155 53/109/155
f 40/93/156 35/72/156 54/100/156
f 36/87/157 46/106/157 51/102/157
f 32/112/158 68/114/158 57/24/158
f 17/113/159 67/260/159 68/114/159
f 2/115/160 65/16/160 67/97/160
f 52/99/57 64/49/57 66/62/57
f 52/99/58 51/261/58 63/117/58
f 48/105/59 50/259/59 62/33/59
f 46/106/161 49/108/161 61/19/161
f 45/75/162 48/105/162 60/22/162
f 47/107/62 59/250/62 61/19/62
f 53/109/163 65/16/163 59/18/163
f 54/100/164 66/62/164 62/13/164
f 51/102/65 46/106/65 58/32/65
f 72/118/66 76/262/66 74/119/66
f 22/120/67 69/263/67 71/121/67
f 31/123/13 29/122/13 71/121/13
f 24/125/37 70/264/37 69/126/37
f 73/128/68 74/248/68 76/129/68
f 74/119/66 128/265/66 126/131/66
f 71/121/13 75/266/13 76/132/13
f 69/133/69 73/246/69 75/134/69
f 78/136/165 77/267/165 79/137/165
f 98/139/166 80/268/166 79/140/166
f 98/142/167 99/185/167 78/143/167
f 99/145/168 100/183/168 77/146/168
f 81/148/169 82/269/169 83/149/169
f 91/151/170 82/270/170 81/152/170
f 90/154/171 84/271/171 83/155/171
f 90/157/172 92/170/172 81/158/172
f 43/160/173 42/272/173 87/161/173
f 25/163/174 43/160/174 88/162/174
f 18/3/175 86/273/175 87/165/175
f 18/166/176 25/274/176 85/167/176
f 88/169/177 87/275/177 92/170/177
f 88/171/178 90/154/178 89/156/178
f 87/165/179 86/273/179 91/151/179
f 85/167/180 89/54/180 91/56/180
f 19/173/181 94/276/181 96/174/181
f 44/176/182 26/277/182 96/177/182
f 44/176/183 95/178/183 93/179/183
f 19/96/184 41/95/184 93/181/184
f 96/174/185 94/276/185 100/183/185
f 95/184/186 96/278/186 99/185/186
f 95/186/187 98/139/187 97/141/187
f 93/181/188 97/79/188 100/81/188
f 101/188/189 102/279/189 104/189/189
f 123/191/190 101/280/190 103/192/190
f 121/194/191 122/237/191 104/195/191
f 124/197/192 103/281/192 104/198/192
f 108/200/193 107/282/193 106/201/193
f 114/203/194 108/283/194 105/204/194
f 116/206/195 115/284/195 106/207/195
f 116/209/196 107/285/196 108/210/196
f 21/212/102 112/223/102 111/213/102
f 17/215/103 110/224/103 112/216/103
f 32/218/104 28/286/104 111/219/104
f 17/113/105 32/112/105 109/221/105
f 112/223/197 116/209/197 114/211/197
f 110/224/198 115/284/198 116/206/198
f 109/220/199 111/219/199 114/203/199
f 110/222/200 109/221/200 113/225/200
f 27/226/110 119/236/110 120/227/110
f 23/229/111 30/287/111 120/230/111
f 20/50/112 118/238/112 119/232/112
f 20/233/113 23/288/113 117/234/113
f 119/236/201 124/197/201 122/199/201
f 117/231/202 120/230/202 122/237/202
f 118/238/203 123/191/203 124/193/203
f 118/235/204 117/234/204 121/39/204
f 126/239/37 128/289/37 127/240/37
f 70/242/118 126/290/118 125/243/118
f 69/133/69 125/291/69 127/245/69
f 73/128/68 127/292/68 128/247/68
